<svg xmlns="http://www.w3.org/2000/svg" width="247.438" height="134.438" viewBox="0 0 247.438 134.438"><g transform="translate(-926 -1392)"><g transform="translate(25)"><path d="M22.719-45.437A22.729,22.729,0,0,1,45.438-22.719,22.729,22.729,0,0,1,22.719,0,22.729,22.729,0,0,1,0-22.719,22.729,22.729,0,0,1,22.719-45.437Z" transform="translate(901 1526.438)" fill="#028080" fill-rule="evenodd"/><path d="M131.77-45.437a22.73,22.73,0,0,1,22.719,22.719A22.73,22.73,0,0,1,131.77,0a22.729,22.729,0,0,1-22.718-22.719A22.729,22.729,0,0,1,131.77-45.437Z" transform="translate(893.193 1526.438)" fill="#028080" fill-rule="evenodd"/><path d="M240.821-45.437A22.73,22.73,0,0,1,263.54-22.719,22.73,22.73,0,0,1,240.821,0,22.729,22.729,0,0,1,218.1-22.719,22.729,22.729,0,0,1,240.821-45.437Z" transform="translate(884.459 1526.438)" fill="#028080" fill-rule="evenodd"/><path d="M.882,0H7.236A5.026,5.026,0,0,0,10.4-.918,3.4,3.4,0,0,0,11.718-3.8a3.184,3.184,0,0,0-2.3-3.15V-7a2.525,2.525,0,0,0,1.8-2.52A3.054,3.054,0,0,0,10.1-11.988a4.638,4.638,0,0,0-3.006-.882H.882Zm3.15-2.556v-3.06H6.84A1.535,1.535,0,0,1,8.568-4.068,1.5,1.5,0,0,1,6.876-2.556Zm0-5.22V-10.35h2.61c.936,0,1.53.468,1.53,1.278,0,.846-.63,1.3-1.548,1.3ZM15.192,0h3.042V-12.438H15.822a3.1,3.1,0,0,1-3.276,2.5v2.052h2.646Z" transform="translate(914.118 1510)" fill="#fff"/><path d="M.882,0H7.236A5.026,5.026,0,0,0,10.4-.918,3.4,3.4,0,0,0,11.718-3.8a3.184,3.184,0,0,0-2.3-3.15V-7a2.525,2.525,0,0,0,1.8-2.52A3.054,3.054,0,0,0,10.1-11.988a4.638,4.638,0,0,0-3.006-.882H.882Zm3.15-2.556v-3.06H6.84A1.535,1.535,0,0,1,8.568-4.068,1.5,1.5,0,0,1,6.876-2.556Zm0-5.22V-10.35h2.61c.936,0,1.53.468,1.53,1.278,0,.846-.63,1.3-1.548,1.3ZM12.474,0H22.05V-2.5H16.686V-2.52A36.8,36.8,0,0,1,19.98-5.094,4.3,4.3,0,0,0,22.032-8.64c0-2.178-1.6-3.942-4.572-3.942A4.592,4.592,0,0,0,13.5-10.89a4.845,4.845,0,0,0-.846,3.132H15.5a2.7,2.7,0,0,1,.558-1.818,1.616,1.616,0,0,1,1.332-.558,1.476,1.476,0,0,1,1.6,1.6A2.012,2.012,0,0,1,18.18-7c-.972.864-2.412,1.764-3.528,2.718A5.3,5.3,0,0,0,12.474,0Z" transform="translate(1014 1510)" fill="#fff"/><path d="M.882,0H7.236A5.026,5.026,0,0,0,10.4-.918,3.4,3.4,0,0,0,11.718-3.8a3.184,3.184,0,0,0-2.3-3.15V-7a2.525,2.525,0,0,0,1.8-2.52A3.054,3.054,0,0,0,10.1-11.988a4.638,4.638,0,0,0-3.006-.882H.882Zm3.15-2.556v-3.06H6.84A1.535,1.535,0,0,1,8.568-4.068,1.5,1.5,0,0,1,6.876-2.556Zm0-5.22V-10.35h2.61c.936,0,1.53.468,1.53,1.278,0,.846-.63,1.3-1.548,1.3ZM17.586.288c2.592,0,4.878-1.224,4.878-3.87a2.921,2.921,0,0,0-2.232-3.024v-.036A2.581,2.581,0,0,0,22.1-9.108c0-2.178-1.854-3.474-4.572-3.474-3.06,0-4.77,1.71-4.824,4.158h2.826a1.824,1.824,0,0,1,1.962-1.89c1.026,0,1.62.558,1.62,1.4,0,.936-.756,1.44-1.908,1.44h-.666v2.106h.738c1.35,0,2.106.54,2.106,1.62,0,1.026-.684,1.71-1.926,1.71a2.08,2.08,0,0,1-2.268-2.232H12.33A4.3,4.3,0,0,0,13.7-.9,5.641,5.641,0,0,0,17.586.288Z" transform="translate(1114.562 1510)" fill="#fff"/></g><g transform="translate(25)"><path d="M22.719-134.188a22.73,22.73,0,0,1,22.719,22.719A22.73,22.73,0,0,1,22.719-88.75,22.73,22.73,0,0,1,0-111.469,22.73,22.73,0,0,1,22.719-134.188Z" transform="translate(901 1526.188)" fill="#026666" fill-rule="evenodd"/><path d="M125.547-134.262a22.73,22.73,0,0,1,22.719,22.719,22.73,22.73,0,0,1-22.719,22.718,22.73,22.73,0,0,1-22.719-22.718A22.73,22.73,0,0,1,125.547-134.262Z" transform="translate(900.172 1526.262)" fill="#026666" fill-rule="evenodd"/><path d="M240.819-134.188a22.73,22.73,0,0,1,22.719,22.719A22.73,22.73,0,0,1,240.819-88.75,22.73,22.73,0,0,1,218.1-111.469,22.73,22.73,0,0,1,240.819-134.188Z" transform="translate(884.9 1526.188)" fill="#026666" fill-rule="evenodd"/><path d="M6.714.288A5.61,5.61,0,0,0,10.836-1.17a5.072,5.072,0,0,0,1.548-3.294H9.2A2.368,2.368,0,0,1,6.7-2.322c-1.908,0-3.1-1.71-3.1-4.068,0-2.34.99-4.086,3.078-4.086a2.327,2.327,0,0,1,2.43,2.034h3.186a5.048,5.048,0,0,0-1.926-3.546A5.989,5.989,0,0,0,6.7-13.122C2.862-13.122.36-10.224.36-6.39.36-2.538,2.934.288,6.714.288ZM15.75,0h3.042V-12.438H16.38a3.1,3.1,0,0,1-3.276,2.5v2.052H15.75Z" transform="translate(913.274 1421)" fill="#fff"/><path d="M6.714.288A5.61,5.61,0,0,0,10.836-1.17a5.072,5.072,0,0,0,1.548-3.294H9.2A2.368,2.368,0,0,1,6.7-2.322c-1.908,0-3.1-1.71-3.1-4.068,0-2.34.99-4.086,3.078-4.086a2.327,2.327,0,0,1,2.43,2.034h3.186a5.048,5.048,0,0,0-1.926-3.546A5.989,5.989,0,0,0,6.7-13.122C2.862-13.122.36-10.224.36-6.39.36-2.538,2.934.288,6.714.288ZM13.032,0h9.576V-2.5H17.244V-2.52a36.8,36.8,0,0,1,3.294-2.574A4.3,4.3,0,0,0,22.59-8.64c0-2.178-1.6-3.942-4.572-3.942a4.592,4.592,0,0,0-3.96,1.692,4.845,4.845,0,0,0-.846,3.132h2.844a2.7,2.7,0,0,1,.558-1.818,1.616,1.616,0,0,1,1.332-.558,1.476,1.476,0,0,1,1.6,1.6A2.012,2.012,0,0,1,18.738-7c-.972.864-2.412,1.764-3.528,2.718A5.3,5.3,0,0,0,13.032,0Z" transform="translate(1014 1421)" fill="#fff"/><path d="M6.714.288A5.61,5.61,0,0,0,10.836-1.17a5.072,5.072,0,0,0,1.548-3.294H9.2A2.368,2.368,0,0,1,6.7-2.322c-1.908,0-3.1-1.71-3.1-4.068,0-2.34.99-4.086,3.078-4.086a2.327,2.327,0,0,1,2.43,2.034h3.186a5.048,5.048,0,0,0-1.926-3.546A5.989,5.989,0,0,0,6.7-13.122C2.862-13.122.36-10.224.36-6.39.36-2.538,2.934.288,6.714.288Zm11.43,0c2.592,0,4.878-1.224,4.878-3.87A2.921,2.921,0,0,0,20.79-6.606v-.036a2.581,2.581,0,0,0,1.872-2.466c0-2.178-1.854-3.474-4.572-3.474-3.06,0-4.77,1.71-4.824,4.158h2.826a1.824,1.824,0,0,1,1.962-1.89c1.026,0,1.62.558,1.62,1.4,0,.936-.756,1.44-1.908,1.44H17.1v2.106h.738c1.35,0,2.106.54,2.106,1.62,0,1.026-.684,1.71-1.926,1.71A2.08,2.08,0,0,1,15.75-4.266H12.888A4.3,4.3,0,0,0,14.256-.9,5.641,5.641,0,0,0,18.144.288Z" transform="translate(1114 1421)" fill="#fff"/></g><g transform="translate(25 -1.698)"><g transform="translate(930.302 1448.698) rotate(90)"><line x2="23.603" transform="translate(0 6)" fill="none" stroke="#7a95b3" stroke-linecap="round" stroke-width="3"/><g transform="translate(18.603)"><path d="M0,0,6,6" fill="none" stroke="#7a95b3" stroke-linecap="round" stroke-width="3"/><path d="M0,6,6,0" transform="translate(0 6)" fill="none" stroke="#7a95b3" stroke-linecap="round" stroke-width="3"/></g></g><g transform="translate(1031.302 1448.698) rotate(90)"><line x2="23.603" transform="translate(0 6)" fill="none" stroke="#7a95b3" stroke-linecap="round" stroke-width="3"/><g transform="translate(18.603)"><path d="M0,0,6,6" fill="none" stroke="#7a95b3" stroke-linecap="round" stroke-width="3"/><path d="M0,6,6,0" transform="translate(0 6)" fill="none" stroke="#7a95b3" stroke-linecap="round" stroke-width="3"/></g></g><g transform="translate(1131.302 1448.698) rotate(90)"><line x2="23.603" transform="translate(0 6)" fill="none" stroke="#7a95b3" stroke-linecap="round" stroke-width="3"/><g transform="translate(18.603)"><path d="M0,0,6,6" fill="none" stroke="#7a95b3" stroke-linecap="round" stroke-width="3"/><path d="M0,6,6,0" transform="translate(0 6)" fill="none" stroke="#7a95b3" stroke-linecap="round" stroke-width="3"/></g></g></g></g></svg>